<svg width="11" height="11" viewBox="0 0 11 11" fill="none" xmlns="http://www.w3.org/2000/svg">
<path d="M10.4987 0.502981C10.3039 0.307302 9.9873 0.306626 9.79162 0.50147C9.59594 0.696314 9.59526 1.0129 9.79011 1.20858L10.4987 0.502981ZM10.2185 2.57995L10.5728 2.93274L10.5891 2.91638L10.6038 2.89859L10.2185 2.57995ZM9.79125 1.20972C9.98609 1.4054 10.3027 1.40608 10.4984 1.21123C10.694 1.01639 10.6947 0.699807 10.4999 0.504128L9.79125 1.20972ZM8.42874 0.782545L8.10848 0.398573L8.09074 0.413374L8.07443 0.429748L8.42874 0.782545ZM7.40436 1.10269C7.20952 1.29837 7.21019 1.61495 7.40587 1.80979C7.60155 2.00464 7.91813 2.00396 8.11298 1.80828L7.40436 1.10269ZM9.1941 2.90009C8.99925 3.09577 8.99993 3.41235 9.19561 3.6072C9.39129 3.80204 9.70787 3.80136 9.90272 3.60568L9.1941 2.90009ZM1.20977 1.20858C1.40462 1.0129 1.40394 0.696314 1.20826 0.50147C1.01258 0.306626 0.696 0.307302 0.501156 0.502981L1.20977 1.20858ZM0.781401 2.57995L0.396087 2.89859L0.410801 2.91638L0.427093 2.93274L0.781401 2.57995ZM0.500013 0.504128C0.305169 0.699807 0.305845 1.01639 0.501524 1.21123C0.697203 1.40608 1.01378 1.4054 1.20863 1.20972L0.500013 0.504128ZM2.57114 0.782545L2.92545 0.429748L2.90914 0.413374L2.8914 0.398573L2.57114 0.782545ZM2.8869 1.80828C3.08174 2.00396 3.39833 2.00464 3.594 1.80979C3.78968 1.61495 3.79036 1.29837 3.59552 1.10269L2.8869 1.80828ZM1.09716 3.60568C1.29201 3.80136 1.60859 3.80204 1.80427 3.6072C1.99995 3.41235 2.00062 3.09577 1.80578 2.90009L1.09716 3.60568ZM8.34294 10.7491C8.48057 10.9885 8.78622 11.071 9.02562 10.9334C9.26502 10.7957 9.34752 10.4901 9.20989 10.2507L8.34294 10.7491ZM1.86614 10.2507C1.72852 10.4901 1.81102 10.7957 2.05042 10.9334C2.28982 11.071 2.59546 10.9885 2.73309 10.7491L1.86614 10.2507ZM5.57505 5.44008H5.07505V5.94008H5.57505V5.44008ZM6.07505 2.62055C6.07505 2.3444 5.85119 2.12055 5.57505 2.12055C5.29891 2.12055 5.07505 2.3444 5.07505 2.62055H6.07505ZM7.13478 5.94008C7.41092 5.94008 7.63478 5.71623 7.63478 5.44008C7.63478 5.16394 7.41092 4.94008 7.13478 4.94008V5.94008ZM9.79011 1.20858C9.79032 1.20879 9.79039 1.20886 9.79043 1.2089L10.4995 0.5038C10.4992 0.503465 10.4989 0.503149 10.4987 0.502981L9.79011 1.20858ZM9.79043 1.2089C10.0668 1.4868 10.0582 1.98921 9.83316 2.2613L10.6038 2.89859C11.1238 2.26977 11.1741 1.18224 10.4995 0.503799L9.79043 1.2089ZM10.4999 0.504128C10.4998 0.504036 10.4994 0.503661 10.4991 0.50331L9.79092 1.20939L9.79125 1.20972L10.4999 0.504128ZM10.4991 0.50331C9.82236 -0.175342 8.73601 -0.12483 8.10848 0.398573L8.749 1.16652C9.01854 0.941703 9.51536 0.933035 9.79092 1.20939L10.4991 0.50331ZM8.07443 0.429748L7.40436 1.10269L8.11298 1.80828L8.78305 1.13534L8.07443 0.429748ZM9.86417 2.22715L9.1941 2.90009L9.90272 3.60568L10.5728 2.93274L9.86417 2.22715ZM0.501156 0.502981C0.500875 0.503263 0.500603 0.503536 0.500341 0.5038L1.20944 1.2089C1.20956 1.20879 1.20967 1.20868 1.20977 1.20858L0.501156 0.502981ZM0.500341 0.503799C-0.174269 1.18224 -0.123927 2.26977 0.396087 2.89859L1.16671 2.2613C0.941702 1.98921 0.933117 1.4868 1.20944 1.2089L0.500341 0.503799ZM1.20863 1.20972C1.20873 1.20962 1.20884 1.20951 1.20896 1.20939L0.500828 0.50331C0.500566 0.503573 0.500294 0.503847 0.500013 0.504128L1.20863 1.20972ZM1.20896 1.20939C1.48452 0.933035 1.98134 0.941703 2.25088 1.16652L2.8914 0.398573C2.26386 -0.12483 1.17752 -0.175342 0.500828 0.50331L1.20896 1.20939ZM2.21683 1.13534L2.8869 1.80828L3.59552 1.10269L2.92545 0.429748L2.21683 1.13534ZM0.427093 2.93274L1.09716 3.60568L1.80578 2.90009L1.13571 2.22715L0.427093 2.93274ZM7.3252 8.97875L8.34294 10.7491L9.20989 10.2507L8.19214 8.48035L7.3252 8.97875ZM2.88389 8.48035L1.86614 10.2507L2.73309 10.7491L3.75084 8.97875L2.88389 8.48035ZM6.07505 5.44008V2.62055H5.07505V5.44008H6.07505ZM5.57505 5.94008H7.13478V4.94008H5.57505V5.94008ZM9.44229 5.20512C9.44229 7.31003 7.74377 9.01275 5.65304 9.01275V10.0127C8.30008 10.0127 10.4423 7.85828 10.4423 5.20512H9.44229ZM5.65304 9.01275C3.5623 9.01275 1.86378 7.31003 1.86378 5.20512H0.863781C0.863781 7.85828 3.00599 10.0127 5.65304 10.0127V9.01275ZM1.86378 5.20512C1.86378 3.10021 3.5623 1.3975 5.65304 1.3975V0.397497C3.00599 0.397497 0.863781 2.55196 0.863781 5.20512H1.86378ZM5.65304 1.3975C7.74377 1.3975 9.44229 3.10021 9.44229 5.20512H10.4423C10.4423 2.55196 8.30008 0.397497 5.65304 0.397497V1.3975Z" fill="#2260FF"/>
</svg>
