<svg width="11" height="12" viewBox="0 0 11 12" fill="none" xmlns="http://www.w3.org/2000/svg">
<path d="M6.77228 1.34213C9.53061 1.51909 11.2932 4.56722 10.1441 7.17334M7.14897 2.93311C8.4465 3.0892 9.34827 4.64871 8.87409 5.91652M5.1327 2.57838L4.05683 0.717774C3.9357 0.508294 3.6656 0.437108 3.45716 0.560896C0.319056 2.42459 0.0207899 3.32116 0.990423 4.96625L4.00077 10.1723C4.94284 11.8333 5.86962 12.0237 9.05516 10.242C9.26675 10.1237 9.34005 9.85453 9.21892 9.64505L8.14305 7.78445C7.98622 7.51323 7.77477 7.52664 7.52609 7.59766C7.27742 7.66869 6.34589 8.27801 6.00635 8.47374C5.6668 8.66948 3.19485 4.23791 3.46649 4.08132C3.73812 3.92474 4.80029 3.38476 4.98623 3.20525C5.17217 3.02573 5.28953 2.8496 5.1327 2.57838Z" stroke="white" stroke-linecap="round"/>
</svg>
