<svg width="24" height="24" viewBox="0 0 24 24" fill="none" xmlns="http://www.w3.org/2000/svg">
<path d="M2.30952 11.5696L2.30952 11.0696L2.30952 11.5696ZM1.18263 8.44831L1.49017 8.84254H1.49017L1.18263 8.44831ZM22.826 8.44831L22.5184 8.84254V8.84254L22.826 8.44831ZM21.6991 11.5696V12.0696V11.5696ZM13.1312 0.885293L13.4387 0.491064V0.491064L13.1312 0.885293ZM10.8774 0.885294L10.5699 0.491064V0.491064L10.8774 0.885294ZM12.0043 16.7683V17.2683V16.7683ZM15.1668 19.8062H15.6668V19.8062H15.1668ZM8.8418 19.8062L8.3418 19.8062V19.8062H8.8418ZM8.3418 23.5C8.3418 23.7761 8.56566 24 8.8418 24C9.11794 24 9.3418 23.7761 9.3418 23.5H8.3418ZM14.6668 23.5C14.6668 23.7761 14.8907 24 15.1668 24C15.4429 24 15.6668 23.7761 15.6668 23.5H14.6668ZM20.3324 11.386V21.7467H21.3324V11.386H20.3324ZM19.0308 23H5.33816V24H19.0308V23ZM4.0365 21.7467V11.386H3.0365V21.7467H4.0365ZM5.33816 23C4.60635 23 4.0365 22.4261 4.0365 21.7467H3.0365C3.0365 23.0039 4.07991 24 5.33816 24V23ZM20.3324 21.7467C20.3324 22.4261 19.7626 23 19.0308 23V24C20.289 24 21.3324 23.0039 21.3324 21.7467H20.3324ZM12.8237 1.27952L22.5184 8.84254L23.1335 8.05408L13.4387 0.491064L12.8237 1.27952ZM21.6991 11.0696L2.30952 11.0696L2.30952 12.0696L21.6991 12.0696V11.0696ZM1.49017 8.84254L11.1849 1.27952L10.5699 0.491064L0.875086 8.05408L1.49017 8.84254ZM2.30952 11.0696C1.05178 11.0696 0.561697 9.56686 1.49017 8.84254L0.875087 8.05408C-0.852642 9.4019 0.162942 12.0696 2.30952 12.0696L2.30952 11.0696ZM22.5184 8.84254C23.4469 9.56685 22.9568 11.0696 21.6991 11.0696V12.0696C23.8457 12.0696 24.8612 9.4019 23.1335 8.05408L22.5184 8.84254ZM13.4387 0.491064C12.5994 -0.163688 11.4092 -0.163688 10.5699 0.491064L11.1849 1.27952C11.6627 0.906826 12.3459 0.906826 12.8237 1.27952L13.4387 0.491064ZM12.0043 17.2683C13.4939 17.2683 14.6668 18.4233 14.6668 19.8062H15.6668C15.6668 17.8335 14.0079 16.2683 12.0043 16.2683V17.2683ZM9.3418 19.8062C9.3418 18.4233 10.5147 17.2683 12.0043 17.2683V16.2683C10.0007 16.2683 8.3418 17.8335 8.3418 19.8062L9.3418 19.8062ZM9.3418 23.5V19.8062H8.3418V23.5H9.3418ZM14.6668 19.8062L14.6668 23.5H15.6668L15.6668 19.8062H14.6668Z" fill="white"/>
</svg>
