<svg width="16" height="19" viewBox="0 0 16 19" fill="none" xmlns="http://www.w3.org/2000/svg">
<path d="M9.96996 19C10.2461 19 10.47 18.7761 10.47 18.5C10.47 18.2239 10.2461 18 9.96996 18V19ZM5.66393 14.598H5.16393C5.16393 14.6136 5.16466 14.6292 5.16612 14.6447L5.66393 14.598ZM9.96447 18C9.68833 18 9.46447 18.2239 9.46447 18.5C9.46447 18.7761 9.68833 19 9.96447 19V18ZM14.2705 14.598L14.7705 14.598H14.7705L14.2705 14.598ZM14.7705 11.25C14.7705 10.9739 14.5466 10.75 14.2705 10.75C13.9943 10.75 13.7705 10.9739 13.7705 11.25L14.7705 11.25ZM6.16393 11.9936C6.16393 11.7174 5.94008 11.4936 5.66393 11.4936C5.38779 11.4936 5.16393 11.7174 5.16393 11.9936H6.16393ZM10.582 2.96087H11.082C11.082 2.95061 11.0817 2.94036 11.081 2.93012L10.582 2.96087ZM5.54098 12V11.5H5.54098L5.54098 12ZM8.96165 1C8.68551 1 8.46165 1.22386 8.46165 1.5C8.46165 1.77614 8.68551 2 8.96165 2V1ZM0.5 2.96087L0.000946552 2.93012C0.000315666 2.94036 0 2.95061 0 2.96087H0.5ZM2.12032 2C2.39646 2 2.62032 1.77614 2.62032 1.5C2.62032 1.22386 2.39646 1 2.12032 1V2ZM9.96996 18H9.96722V19H9.96996V18ZM9.96756 18C7.9577 17.9986 6.32241 16.2654 6.16175 14.5514L5.16612 14.6447C5.37104 16.831 7.40068 18.9983 9.96688 19L9.96756 18ZM9.96447 19H9.96722V18H9.96447V19ZM9.96756 19C12.4786 18.9983 14.7705 17.0605 14.7705 14.598L13.7705 14.598C13.7705 16.4082 12.0319 17.9986 9.96688 18L9.96756 19ZM14.7705 14.598L14.7705 11.25L13.7705 11.25L13.7705 14.598L14.7705 14.598ZM6.16393 14.598V11.9936H5.16393V14.598H6.16393ZM10.082 2.96087V6.88696H11.082V2.96087H10.082ZM10.082 6.88696C10.082 9.44139 8.04223 11.5 5.54098 11.5V12.5C8.60785 12.5 11.082 9.98024 11.082 6.88696H10.082ZM11.081 2.93012C11.0608 2.60153 10.9328 2.131 10.6071 1.73175C10.265 1.31252 9.72592 1 8.96165 1V2C9.42162 2 9.67765 2.17444 9.83222 2.3639C10.0031 2.57334 10.0732 2.83325 10.0829 2.99162L11.081 2.93012ZM0 2.96087V6.88696H1V2.96087H0ZM0 6.88696C0 9.98024 2.47412 12.5 5.54098 12.5L5.54098 11.5C3.03974 11.5 1 9.44139 1 6.88696H0ZM0.999053 2.99162C1.00881 2.83325 1.07887 2.57334 1.24974 2.3639C1.40432 2.17444 1.66034 2 2.12032 2V1C1.35605 1 0.816924 1.31252 0.474898 1.73175C0.149173 2.131 0.021194 2.60153 0.000946552 2.93012L0.999053 2.99162ZM3.44262 1.375C3.44262 1.58993 3.27339 1.75 3.08197 1.75V2.75C3.8412 2.75 4.44262 2.12657 4.44262 1.375H3.44262ZM3.08197 1.75C2.89054 1.75 2.72131 1.58993 2.72131 1.375H1.72131C1.72131 2.12657 2.32274 2.75 3.08197 2.75V1.75ZM2.72131 1.375C2.72131 1.16007 2.89054 1 3.08197 1V0C2.32274 0 1.72131 0.623432 1.72131 1.375H2.72131ZM3.08197 1C3.27339 1 3.44262 1.16007 3.44262 1.375H4.44262C4.44262 0.623432 3.8412 0 3.08197 0V1ZM8.36066 1.375C8.36066 1.58993 8.19143 1.75 8 1.75V2.75C8.75923 2.75 9.36066 2.12657 9.36066 1.375H8.36066ZM8 1.75C7.80858 1.75 7.63934 1.58993 7.63934 1.375H6.63934C6.63934 2.12657 7.24077 2.75 8 2.75V1.75ZM7.63934 1.375C7.63934 1.16007 7.80858 1 8 1V0C7.24077 0 6.63934 0.623433 6.63934 1.375H7.63934ZM8 1C8.19143 1 8.36066 1.16007 8.36066 1.375H9.36066C9.36066 0.623432 8.75923 0 8 0V1ZM15 9.875C15 10.3661 14.6106 10.75 14.1475 10.75V11.75C15.1784 11.75 16 10.9027 16 9.875H15ZM14.1475 10.75C13.6845 10.75 13.2951 10.3661 13.2951 9.875H12.2951C12.2951 10.9027 13.1167 11.75 14.1475 11.75V10.75ZM13.2951 9.875C13.2951 9.38393 13.6845 9 14.1475 9V8C13.1167 8 12.2951 8.84729 12.2951 9.875H13.2951ZM14.1475 9C14.6106 9 15 9.38393 15 9.875H16C16 8.84729 15.1784 8 14.1475 8V9Z" fill="#2260FF"/>
</svg>
