<svg width="111" height="116" viewBox="0 0 111 116" fill="none" xmlns="http://www.w3.org/2000/svg">
<path d="M44.2152 54.975C46.9862 64.175 64.4989 90.8548 85.7802 96.3748M77.4672 106.725C60.8412 101.55 44.0326 88.8221 34.2397 67.0499C22.6014 41.1752 49.203 30.8248 59.1787 53.2499C63.0154 61.8749 69.1543 71.3624 87.4429 80.8499C105.731 90.3374 117.37 61.8752 100.744 53.2503C76.5356 40.692 70.8169 4.60503 35.9023 11.8502C-13.1427 22.0276 -2.33743 89.475 22.6015 108.45M95.7559 67.0499C65.8291 56.6999 66.5533 13.6592 34.2397 27.3745C-2.33754 42.8995 24.2643 105 57.5163 113.625M62.5039 1.5C80.7925 3.225 85.7803 22.2 105.732 39.45" stroke="#E9F6FE" stroke-width="3" stroke-linecap="round" stroke-linejoin="round"/>
</svg>
