<svg width="15" height="18" viewBox="0 0 15 18" fill="none" xmlns="http://www.w3.org/2000/svg">
<path d="M5.21946 2.56046C5.21946 2.83661 5.44332 3.06046 5.71946 3.06046C5.9956 3.06046 6.21946 2.83661 6.21946 2.56046H5.21946ZM8.61756 2.56046C8.61756 2.83661 8.84142 3.06046 9.11756 3.06046C9.3937 3.06046 9.61756 2.83661 9.61756 2.56046H8.61756ZM12.8955 10.619L12.5119 10.9396V10.9396L12.8955 10.619ZM14.4894 13.4743L14.9835 13.3978V13.3978L14.4894 13.4743ZM7.49762 1.79913C7.22148 1.79913 6.99762 2.02299 6.99762 2.29913C6.99762 2.57527 7.22148 2.79913 7.49762 2.79913V1.79913ZM12.7184 6.77691L12.2208 6.82618V6.82618L12.7184 6.77691ZM2.10639 10.619L2.49003 10.9396H2.49003L2.10639 10.619ZM0.512495 13.4743L1.00661 13.5507V13.5507L0.512495 13.4743ZM7.50428 2.79913C7.78042 2.79913 8.00428 2.57527 8.00428 2.29913C8.00428 2.02299 7.78042 1.79913 7.50428 1.79913V2.79913ZM2.28348 6.77691L1.78592 6.72763L2.28348 6.77691ZM9.63721 14.649V14.9076H10.6372V14.649H9.63721ZM5.29733 14.9076V14.649H4.29733V14.9076H5.29733ZM7.46727 17C6.25485 17 5.29733 16.0494 5.29733 14.9076H4.29733C4.29733 16.6293 5.73055 18 7.46727 18V17ZM9.63721 14.9076C9.63721 16.0494 8.67968 17 7.46727 17V18C9.20398 18 10.6372 16.6293 10.6372 14.9076H9.63721ZM6.21946 2.56046C6.21946 1.99458 6.38129 1.60515 6.59269 1.36459C6.80115 1.12737 7.08685 1 7.41851 1V0C6.81182 0 6.24799 0.24193 5.84152 0.704478C5.43798 1.16369 5.21946 1.80449 5.21946 2.56046H6.21946ZM7.41851 1C7.75018 1 8.03588 1.12737 8.24434 1.36459C8.45573 1.60515 8.61756 1.99458 8.61756 2.56046H9.61756C9.61756 1.80449 9.39904 1.16369 8.99551 0.704479C8.58903 0.24193 8.02521 0 7.41851 0V1ZM12.5119 10.9396C12.6166 11.065 12.7778 11.2115 12.8945 11.3256C13.0279 11.4559 13.1691 11.6032 13.3075 11.7883C13.5794 12.1517 13.862 12.6895 13.9953 13.5507L14.9835 13.3978C14.8249 12.373 14.4771 11.6823 14.1083 11.1893C13.9263 10.946 13.7446 10.7581 13.5935 10.6104C13.4257 10.4464 13.3409 10.3722 13.2791 10.2983L12.5119 10.9396ZM7.49762 2.79913C7.49861 2.79913 7.49961 2.79913 7.50063 2.79913L7.50127 1.79913C7.50007 1.79913 7.49885 1.79913 7.49762 1.79913V2.79913ZM7.50063 2.79913C10.0196 2.80075 12.0247 4.84569 12.2208 6.82618L13.216 6.72763C12.9689 4.23214 10.5305 1.80108 7.50127 1.79913L7.50063 2.79913ZM12.2208 6.82618C12.3276 7.90377 12.2758 8.71216 12.2431 9.33452C12.2271 9.63771 12.2134 9.92917 12.2346 10.1773C12.256 10.4272 12.3175 10.707 12.5119 10.9396L13.2791 10.2983C13.2766 10.2952 13.2451 10.2569 13.231 10.092C13.2167 9.92537 13.2249 9.70556 13.2417 9.38702C13.2743 8.7659 13.331 7.88893 13.216 6.72763L12.2208 6.82618ZM1.72275 10.2983C1.66102 10.3722 1.57616 10.4464 1.40842 10.6104C1.25727 10.7581 1.07559 10.946 0.893633 11.1893C0.52478 11.6823 0.176962 12.373 0.0183765 13.3978L1.00661 13.5507C1.13988 12.6895 1.42251 12.1517 1.69438 11.7883C1.83279 11.6032 1.97404 11.4559 2.10737 11.3256C2.2241 11.2115 2.38525 11.065 2.49003 10.9396L1.72275 10.2983ZM7.50428 1.79913C7.50305 1.79913 7.50183 1.79913 7.50063 1.79913L7.50127 2.79913C7.50229 2.79913 7.50329 2.79913 7.50428 2.79913V1.79913ZM7.50063 1.79913C4.47142 1.80108 2.03304 4.23214 1.78592 6.72763L2.78105 6.82618C2.97717 4.84569 4.98228 2.80075 7.50127 2.79913L7.50063 1.79913ZM1.78592 6.72763C1.67092 7.88893 1.72757 8.7659 1.76022 9.38702C1.77697 9.70556 1.78517 9.92537 1.77091 10.092C1.7568 10.2569 1.72533 10.2952 1.72275 10.2983L2.49003 10.9396C2.68443 10.707 2.74587 10.4272 2.76726 10.1773C2.7885 9.92917 2.77478 9.63771 2.75884 9.33452C2.72613 8.71216 2.67434 7.90377 2.78105 6.82618L1.78592 6.72763ZM1.64195 15.149H13.3599V14.149H1.64195V15.149ZM0.0183765 13.3978C-0.138963 14.4145 0.740582 15.149 1.64195 15.149V14.149C1.20281 14.149 0.964774 13.8211 1.00661 13.5507L0.0183765 13.3978ZM13.9953 13.5507C14.0371 13.8211 13.7991 14.149 13.3599 14.149V15.149C14.2613 15.149 15.1409 14.4145 14.9835 13.3978L13.9953 13.5507Z" fill="black"/>
</svg>
