    <svg width="11" height="13" viewBox="0 0 11 13" fill="none" xmlns="http://www.w3.org/2000/svg">
<path d="M4.93666 7.6091C5.10244 7.38826 5.05781 7.07484 4.83697 6.90906C4.61613 6.74328 4.30271 6.78791 4.13693 7.00875L4.93666 7.6091ZM3.10946 8.37745C2.94368 8.59829 2.98831 8.91171 3.20915 9.07749C3.42999 9.24327 3.74341 9.19864 3.9092 8.9778L3.10946 8.37745ZM2.73355 7.43163C2.51647 7.26096 2.20213 7.29857 2.03145 7.51565C1.86077 7.73273 1.89839 8.04707 2.11547 8.21775L2.73355 7.43163ZM4.36792 9.98872C4.585 10.1594 4.89934 10.1218 5.07002 9.9047C5.2407 9.68762 5.20308 9.37328 4.986 9.2026L4.36792 9.98872ZM2.09154 12.1451L2.49141 12.4453V12.4453L2.09154 12.1451ZM0.68376 11.0382L0.283892 10.7381L0.68376 11.0382ZM0.84688 12.312L0.537841 12.7051L0.84688 12.312ZM9.339 6.25387C8.26886 7.67941 6.28062 7.94288 4.89354 6.85231L4.27547 7.63843C6.10814 9.07935 8.73528 8.72379 10.1387 6.85422L9.339 6.25387ZM4.89354 6.85231C3.49946 5.75622 3.2336 3.70291 4.30886 2.27053L3.50913 1.67018C2.11079 3.53292 2.4498 6.20301 4.27547 7.63843L4.89354 6.85231ZM4.30886 2.27053C5.379 0.844989 7.36725 0.58152 8.75432 1.6721L9.3724 0.885978C7.53972 -0.554947 4.91259 -0.199387 3.50913 1.67018L4.30886 2.27053ZM8.75432 1.6721C10.1484 2.76818 10.4143 4.82149 9.339 6.25387L10.1387 6.85422C11.5371 4.99148 11.1981 2.32139 9.3724 0.885978L8.75432 1.6721ZM4.13693 7.00875L3.10946 8.37745L3.9092 8.9778L4.93666 7.6091L4.13693 7.00875ZM2.11547 8.21775L4.36792 9.98872L4.986 9.2026L2.73355 7.43163L2.11547 8.21775ZM3.85476 8.96345L1.69167 11.8449L2.49141 12.4453L4.65449 9.5638L3.85476 8.96345ZM1.08363 11.3384L3.24671 8.45695L2.44698 7.8566L0.283892 10.7381L1.08363 11.3384ZM1.15592 11.919C0.982961 11.783 0.946502 11.5211 1.08363 11.3384L0.283892 10.7381C-0.176302 11.3511 -0.0666975 12.2298 0.537841 12.7051L1.15592 11.919ZM1.69167 11.8449C1.55968 12.0208 1.32187 12.0494 1.15592 11.919L0.537841 12.7051C1.14939 13.1859 2.02609 13.0651 2.49141 12.4453L1.69167 11.8449Z" fill="#2260FF"/>
</svg>
