<svg width="21" height="17" viewBox="0 0 21 17" fill="none" xmlns="http://www.w3.org/2000/svg">
<path d="M17.2949 5.17235C19.2613 6.5357 20.5 8.12848 20.5 8.80975C20.5 10.1112 16.3904 13.9876 10.5 13.9876C9.69558 13.9876 8.92437 13.9153 8.19231 13.7872M14.9872 3.87524C13.6341 3.27891 12.1084 2.88017 10.5 2.88017C5.02055 2.88017 0.5 7.50826 0.5 8.80975C0.5 9.74597 2.62656 12.0146 6.01282 13.2142M10.3279 11.4909C11.008 11.5554 11.7134 11.4119 12.3499 11.0343C13.3121 10.4636 13.9024 9.48506 14.0333 8.43388M8.44872 10.6913C8.14727 10.4333 7.88422 10.1172 7.6766 9.74775C6.73189 8.06656 7.29252 5.91683 8.92882 4.9462C10.3584 4.0982 12.136 4.43071 13.1923 5.64932M18.3205 0.5L2.80769 16.5" stroke="black" stroke-linecap="round"/>
</svg>
