<svg width="13" height="9" viewBox="0 0 13 9" fill="none" xmlns="http://www.w3.org/2000/svg">
<path d="M1.14155 0.5C0.787232 0.5 0.500003 0.750691 0.500003 1.05993V7.94004C0.500003 8.24928 0.787232 8.49997 1.14155 8.49997L8.23525 8.5C8.58956 8.5 8.87679 8.24931 8.87679 7.94007V1.05996C8.87679 0.750721 8.58956 0.50003 8.23525 0.50003L1.14155 0.5Z" stroke="white"/>
<path d="M8.87679 2.24534V6.53357C8.87679 6.65038 9.12863 6.75841 9.53828 6.81732L11.2243 7.30084C11.8634 7.4841 12.5 7.00437 12.5 6.33959V2.47048C12.5 1.81278 11.876 1.33417 11.2408 1.50466L9.53828 1.96159C9.12863 2.0205 8.87679 2.12853 8.87679 2.24534Z" stroke="white"/>
</svg>
